<svg version="1.1" id="Capa_1" xmlns="http://www.w3.org/2000/svg" xmlns:xlink="http://www.w3.org/1999/xlink" x="0px" y="0px"
	 viewBox="0 0 512 512" style="enable-background:new 0 0 512 512;" xml:space="preserve">
<g>
	<g>
		<path d="M376.163,308.245c-5.768,0-10.449,4.681-10.449,10.449c0,5.768,4.681,10.449,10.449,10.449s10.449-4.681,10.449-10.449
			C386.612,312.926,381.931,308.245,376.163,308.245z"/>
	</g>
</g>
<g>
	<g>
		<path d="M229.878,308.245c-5.762,0-10.449-4.687-10.449-10.449c0-5.762,4.687-10.449,10.449-10.449
			c3.701,0,7.609,1.888,11.301,5.462c4.149,4.012,10.762,3.903,14.776-0.242c4.012-4.147,3.904-10.762-0.242-14.776
			c-5.303-5.131-10.609-8.034-15.385-9.618V256c0-5.771-4.678-10.449-10.449-10.449c-5.771,0-10.449,4.678-10.449,10.449v12.246
			c-12.162,4.313-20.898,15.927-20.898,29.55c0,17.285,14.062,31.347,31.347,31.347c5.762,0,10.449,4.687,10.449,10.449
			c0,5.762-4.687,10.449-10.449,10.449c-4.464,0-9.283-2.808-13.569-7.905c-3.714-4.417-10.304-4.988-14.722-1.274
			c-4.418,3.714-4.987,10.305-1.274,14.722c5.586,6.645,12.154,11.274,19.115,13.609v12.195c0,5.771,4.678,10.449,10.449,10.449
			c5.771,0,10.449-4.678,10.449-10.449v-12.246c12.162-4.313,20.898-15.927,20.898-29.55
			C261.224,322.307,247.162,308.245,229.878,308.245z"/>
	</g>
</g>
<g>
	<g>
		<path d="M147.551,254.734c-5.922-5.921-13.794-9.183-22.163-9.183c-17.285,0-31.347,14.062-31.347,31.347
			c0,5.771,4.678,10.449,10.449,10.449s10.449-4.678,10.449-10.449c0-5.762,4.687-10.449,10.449-10.449
			c2.788,0,5.412,1.088,7.385,3.063c1.976,1.976,3.064,4.599,3.064,7.386c0,5.771,4.678,10.449,10.449,10.449
			c5.771,0,10.449-4.678,10.449-10.449C156.735,268.528,153.474,260.657,147.551,254.734z"/>
	</g>
</g>
<g>
	<g>
		<path d="M382.051,278.091c-7.439-24.117-23.56-45.745-46.62-62.542c-4.661-3.396-11.201-2.372-14.598,2.294
			c-3.398,4.664-2.371,11.2,2.294,14.598c19.386,14.121,32.856,32.037,38.956,51.81c1.385,4.489,5.517,7.372,9.982,7.372
			c1.02,0,2.057-0.15,3.083-0.467C380.662,289.454,383.752,283.605,382.051,278.091z"/>
	</g>
</g>
<g>
	<g>
		<path d="M512,172.408c0-5.771-4.679-10.449-10.449-10.449c-5.77,0-10.449,4.678-10.449,10.449c0,8.362-2.01,16.486-5.73,23.763
			c-5.68-8.045-15.041-13.314-25.617-13.314c-17.285,0-31.347,14.062-31.347,31.347c0,17.285,14.062,31.347,31.347,31.347
			c3.326,0,6.573-0.548,9.645-1.553c-1.506,8.77-5.194,17.05-10.902,24.061c-8.096,9.944-19.349,16.447-31.737,18.547
			c-4.147-27.183-16.107-52.943-35.211-75.469c-20.52-24.198-47.898-43.111-79.749-55.232c7.952-14.016,12.117-29.742,12.117-46.191
			c0-51.854-42.187-94.041-94.041-94.041s-94.041,42.187-94.041,94.041c0,16.446,4.164,32.171,12.109,46.19
			c-6.756,2.578-13.344,5.472-19.714,8.673c-10.708-13.27-25.574-22.3-42.501-25.686c-19.156-3.832-38.659,0.027-54.914,10.864
			c-4.801,3.201-6.099,9.687-2.899,14.49l35.298,52.951c0.001,0.001,0.024,0.037,0.07,0.104c-9.34,12.027-16.734,24.992-22.07,38.7
			H10.449C4.678,256,0,260.678,0,266.449v83.592c0,5.771,4.678,10.449,10.449,10.449h30.768
			c10.347,26.575,28.451,50.485,52.824,69.735v55.652c0,5.771,4.678,10.449,10.449,10.449h62.694
			c5.771,0,10.449-4.678,10.449-10.449v-16.294c16.953,3.882,34.469,5.845,52.245,5.845c17.777,0,35.291-1.962,52.245-5.845v16.294
			c0,5.771,4.679,10.449,10.449,10.449h62.694c5.77,0,10.449-4.678,10.449-10.449v-55.653
			c39.916-31.543,62.694-75.725,62.694-121.979c0-0.256-0.007-0.512-0.008-0.768c18.079-2.584,34.568-11.806,46.306-26.223
			c12.956-15.913,18.517-36.413,15.608-56.894C504.142,210.663,512,192,512,172.408z M229.878,36.571
			c40.331,0,73.143,32.812,73.143,73.143c0,16.558-5.402,32.181-15.62,45.177c-13.983,17.773-34.949,27.966-57.523,27.966
			c-22.567,0-43.534-10.19-57.528-27.958c-10.216-13.006-15.615-28.63-15.615-45.185C156.735,69.383,189.547,36.571,229.878,36.571z
			 M349.018,416.7c-2.644,1.973-4.202,5.077-4.202,8.375v50.354H303.02v-19.372c0-3.294-1.553-6.395-4.191-8.368
			c-2.637-1.972-6.049-2.586-9.211-1.655c-19.137,5.638-39.237,8.497-59.741,8.497s-40.604-2.859-59.741-8.497
			c-3.159-0.93-6.573-0.318-9.211,1.655s-4.191,5.074-4.191,8.367v19.372h-41.796v-50.354c0-3.298-1.557-6.402-4.199-8.374
			c-25.286-18.87-43.359-43.057-52.264-69.945c-1.417-4.277-5.414-7.164-9.919-7.164H20.898v-62.694h27.658
			c4.506,0,8.503-2.887,9.919-7.164c5.363-16.198,14.017-31.344,25.719-45.015c3.038-3.548,3.351-8.683,0.766-12.575
			c-2.711-4.081-4.368-6.557-4.368-6.557l-28.914-43.376c9.411-3.855,19.752-4.868,29.954-2.828
			c13.683,2.737,25.482,10.638,33.229,22.258c0.001,0.002,1.155,1.727,1.471,2.207c3.018,4.572,9.054,6.035,13.831,3.357
			c9.618-5.394,19.888-9.989,30.594-13.724c6.006,6.52,12.809,12.084,20.206,16.598c-0.987,0.301-1.972,0.609-2.953,0.929
			c-5.487,1.787-8.487,7.684-6.7,13.171c1.437,4.413,5.531,7.216,9.933,7.216c1.072,0,2.163-0.167,3.238-0.517
			c14.517-4.727,29.79-7.124,45.396-7.124c15.522,0,30.709,2.371,45.138,7.046c5.485,1.777,11.382-1.23,13.16-6.72
			c1.779-5.49-1.23-11.382-6.72-13.162c-0.888-0.287-1.781-0.564-2.673-0.837c7.402-4.517,14.208-10.085,20.216-16.612
			c65.187,22.747,108.512,76.188,108.512,134.774C407.51,349.436,386.19,388.966,349.018,416.7z M469.812,217.043
			c-0.085,0.31-0.181,0.602-0.283,0.863c-0.007,0.019-0.015,0.037-0.021,0.054c-1.537,4.003-5.456,6.693-9.753,6.693
			c-5.762,0-10.449-4.687-10.449-10.449c0-5.762,4.687-10.449,10.449-10.449c5.762,0,10.449,4.687,10.449,10.449
			C470.204,215.162,470.079,216.095,469.812,217.043z"/>
	</g>
</g>
<g>
	<g>
		<path d="M229.878,57.469c-28.808,0-52.245,23.437-52.245,52.245s23.437,52.245,52.245,52.245s52.245-23.437,52.245-52.245
			S258.685,57.469,229.878,57.469z M229.878,141.061c-17.285,0-31.347-14.062-31.347-31.347s14.062-31.347,31.347-31.347
			c17.285,0,31.347,14.062,31.347,31.347S247.162,141.061,229.878,141.061z"/>
	</g>
</g>
</svg>
