<?xml version="1.0" encoding="iso-8859-1"?>
<!-- Generator: Adobe Illustrator 19.0.0, SVG Export Plug-In . SVG Version: 6.00 Build 0)  -->
<svg version="1.1" id="Capa_1" xmlns="http://www.w3.org/2000/svg" xmlns:xlink="http://www.w3.org/1999/xlink" x="0px" y="0px"
	 viewBox="0 0 384 384" style="enable-background:new 0 0 384 384;" xml:space="preserve">
<g>
	<g>
		<path d="M376,107.242h-25.6v-38.32c0-4.418-3.582-8-8-8c-89.36-2.48-136,24-150.64,34.24c-14.8-10.4-61.2-36.72-150.64-34.24
			c-4.418,0-8,3.582-8,8v38.32H8c-4.418,0-8,3.582-8,8v200c0,4.418,3.582,8,8,8h368c4.418,0,8-3.582,8-8v-200
			C384,110.824,380.418,107.242,376,107.242z M16,306.842v-184h17.6v153.6c-0.013,2.166,0.853,4.244,2.4,5.76
			c1.542,1.488,3.617,2.295,5.76,2.24c62.24-1.44,102.88,11.84,124.64,22.4H16z M184,297.962c-19.52-11.44-61.2-29.28-131.12-29.28
			H49.6v-192c82.48-0.64,124,24.88,134.4,32V297.962z M200,109.162c10.48-7.52,52.08-32.72,134.4-32v192
			c-72-0.48-114.64,17.68-134.4,29.28V109.162z M368,306.842H217.6c21.84-10.56,62-24,124.64-22.08
			c2.143,0.055,4.218-0.752,5.76-2.24c1.547-1.516,2.413-3.594,2.4-5.76v-153.52H368V306.842z"/>
	</g>
</g>
<g>
	<g>
		<path d="M319.2,109.322c-36.513,0.724-72.264,10.57-104,28.64c-3.822,2.43-4.95,7.498-2.52,11.32
			c2.43,3.822,7.498,4.95,11.32,2.52c29.105-16.444,61.784-25.533,95.2-26.48c4.418,0,8-3.582,8-8S323.618,109.322,319.2,109.322z"
			/>
	</g>
</g>
<g>
	<g>
		<path d="M319.2,142.762c-36.513,0.724-72.264,10.57-104,28.64c-3.47,2.735-4.067,7.765-1.332,11.235
			c2.214,2.81,6.025,3.808,9.332,2.445c29.357-16.513,62.326-25.552,96-26.32c4.418,0,8-3.582,8-8S323.618,142.762,319.2,142.762z"
			/>
	</g>
</g>
<g>
	<g>
		<path d="M319.2,175.802c-36.512,0.728-72.263,10.573-104,28.64c-3.47,2.734-4.067,7.765-1.332,11.235
			c2.214,2.81,6.025,3.808,9.332,2.445c29.357-16.513,62.326-25.552,96-26.32c4.418,0,8-3.582,8-8S323.618,175.802,319.2,175.802z"
			/>
	</g>
</g>
<g>
	<g>
		<path d="M319.2,209.562c-36.513,0.724-72.264,10.57-104,28.64c-3.47,2.734-4.067,7.765-1.332,11.235
			c2.214,2.81,6.025,3.808,9.332,2.445c29.357-16.513,62.326-25.552,96-26.32c4.418,0,8-3.582,8-8S323.618,209.562,319.2,209.562z"
			/>
	</g>
</g>
<g>
	<g>
		<path d="M170.4,138.122c-31.736-18.07-67.487-27.916-104-28.64c-4.418,0-8,3.582-8,8s3.582,8,8,8l0.64-0.16
			c33.464,0.959,66.193,10.047,95.36,26.48c4.085,1.684,8.761-0.263,10.445-4.348C174.208,144.147,173.21,140.336,170.4,138.122z"/>
	</g>
</g>
<g>
	<g>
		<path d="M170.4,171.402c-31.736-18.07-67.487-27.916-104-28.64c-4.418,0-8,3.582-8,8s3.582,8,8,8h0.64
			c33.451,0.91,66.178,9.943,95.36,26.32c4.085,1.684,8.761-0.263,10.445-4.348C174.208,177.427,173.21,173.616,170.4,171.402z"/>
	</g>
</g>
<g>
	<g>
		<path d="M170.4,204.842c-31.737-18.067-67.488-27.912-104-28.64c-4.418,0-8,3.582-8,8s3.582,8,8,8l0.64-0.4
			c33.485,1.033,66.214,10.204,95.36,26.72c4.085,1.684,8.761-0.263,10.445-4.348C174.208,210.867,173.21,207.056,170.4,204.842z"/>
	</g>
</g>
<g>
	<g>
		<path d="M170.4,238.282c-31.736-18.07-67.487-27.916-104-28.64c-4.418,0-8,3.582-8,8s3.582,8,8,8l0.64-0.08
			c33.458,0.935,66.185,9.995,95.36,26.4c4.085,1.684,8.761-0.263,10.445-4.348C174.208,244.307,173.21,240.496,170.4,238.282z"/>
	</g>
</g>
<g>
</g>
<g>
</g>
<g>
</g>
<g>
</g>
<g>
</g>
<g>
</g>
<g>
</g>
<g>
</g>
<g>
</g>
<g>
</g>
<g>
</g>
<g>
</g>
<g>
</g>
<g>
</g>
<g>
</g>
</svg>
